<?xml version="1.0" encoding="UTF-8" standalone="no"?>
<svg
   width="816.935pt"
   height="721.67603pt"
   viewBox="0 0 816.93499 721.67528"
   version="1.1"
   id="svg174"
   sodipodi:docname="partial_circuit.svg"
   inkscape:version="1.3.2 (1:1.3.2+202311252150+091e20ef0f)"
   inkscape:export-filename="partial_circuit.png"
   inkscape:export-xdpi="96"
   inkscape:export-ydpi="96"
   xmlns:inkscape="http://www.inkscape.org/namespaces/inkscape"
   xmlns:sodipodi="http://sodipodi.sourceforge.net/DTD/sodipodi-0.dtd"
   xmlns:xlink="http://www.w3.org/1999/xlink"
   xmlns="http://www.w3.org/2000/svg"
   xmlns:svg="http://www.w3.org/2000/svg"
   xmlns:rdf="http://www.w3.org/1999/02/22-rdf-syntax-ns#"
   xmlns:cc="http://creativecommons.org/ns#"
   xmlns:dc="http://purl.org/dc/elements/1.1/">
  <sodipodi:namedview
     id="namedview174"
     pagecolor="#ffffff"
     bordercolor="#000000"
     borderopacity="0.25"
     inkscape:showpageshadow="2"
     inkscape:pageopacity="0.0"
     inkscape:pagecheckerboard="0"
     inkscape:deskcolor="#d1d1d1"
     inkscape:document-units="pt"
     inkscape:zoom="1.0935973"
     inkscape:cx="8.2297204"
     inkscape:cy="432.06032"
     inkscape:window-width="3440"
     inkscape:window-height="1403"
     inkscape:window-x="0"
     inkscape:window-y="0"
     inkscape:window-maximized="1"
     inkscape:current-layer="svg174" />
  <metadata
     id="metadata1">
    <rdf:RDF>
      <cc:Work>
        <dc:type
           rdf:resource="http://purl.org/dc/dcmitype/StillImage" />
        <dc:date>2024-03-11T18:26:29.043482</dc:date>
        <dc:format>image/svg+xml</dc:format>
        <dc:creator>
          <cc:Agent>
            <dc:title>Matplotlib v3.8.3, https://matplotlib.org/</dc:title>
          </cc:Agent>
        </dc:creator>
      </cc:Work>
    </rdf:RDF>
  </metadata>
  <defs
     id="defs1">
    <style
       type="text/css"
       id="style1">*{stroke-linejoin: round; stroke-linecap: butt}</style>
    <defs
       id="defs42">
      <path
         id="DejaVuSans-74"
         d="M 1172,4494 V 3500 H 2356 V 3053 H 1172 V 1153 q 0,-428 117,-550 117,-122 477,-122 h 590 V 0 H 1766 Q 1100,0 847,248 594,497 594,1153 V 3053 H 172 v 447 h 422 v 994 z"
         transform="scale(0.015625)" />
      <path
         id="DejaVuSans-65"
         d="M 3597,1894 V 1613 H 953 q 38,-594 358,-905 320,-311 892,-311 331,0 642,81 311,81 618,244 V 178 Q 3153,47 2828,-22 2503,-91 2169,-91 1331,-91 842,396 353,884 353,1716 q 0,859 464,1363 464,505 1252,505 706,0 1117,-455 411,-454 411,-1235 z m -575,169 q -6,471 -264,752 -258,282 -683,282 -481,0 -770,-272 -289,-272 -333,-766 z"
         transform="scale(0.015625)" />
      <path
         id="DejaVuSans-41"
         d="M 2188,4044 1331,1722 h 1716 z m -357,622 h 716 L 4325,0 H 3669 L 3244,1197 H 1141 L 716,0 H 50 Z"
         transform="scale(0.015625)" />
      <path
         id="DejaVuSans-20"
         transform="scale(0.015625)"
         d="" />
      <path
         id="DejaVuSans-28"
         d="m 1984,4856 q -418,-718 -622,-1422 -203,-703 -203,-1425 0,-721 205,-1429 205,-708 620,-1424 h -500 q -468,735 -701,1444 -233,709 -233,1409 0,697 231,1403 232,707 703,1444 z"
         transform="scale(0.015625)" />
      <path
         id="DejaVuSans-38"
         d="m 2034,2216 q -450,0 -708,-241 -257,-241 -257,-662 0,-422 257,-663 258,-241 708,-241 450,0 709,242 260,243 260,662 0,421 -258,662 -257,241 -711,241 z m -631,268 q -406,100 -633,378 -226,279 -226,679 0,559 398,884 399,325 1092,325 697,0 1094,-325 397,-325 397,-884 0,-400 -227,-679 -226,-278 -629,-378 456,-106 710,-416 255,-309 255,-755 Q 3634,634 3220,271 2806,-91 2034,-91 1263,-91 848,271 434,634 434,1313 q 0,446 256,755 257,310 713,416 z m -231,997 q 0,-362 226,-565 227,-203 636,-203 407,0 636,203 230,203 230,565 0,363 -230,566 -229,203 -636,203 -409,0 -636,-203 -226,-203 -226,-566 z"
         transform="scale(0.015625)" />
      <path
         id="DejaVuSans-36"
         d="m 2113,2584 q -425,0 -674,-291 -248,-290 -248,-796 0,-503 248,-796 249,-292 674,-292 425,0 673,292 248,293 248,796 0,506 -248,796 -248,291 -673,291 z m 1253,1979 v -575 q -238,112 -480,171 -242,60 -480,60 -625,0 -955,-422 -329,-422 -376,-1275 184,272 462,417 279,145 613,145 703,0 1111,-427 408,-426 408,-1160 0,-719 -425,-1154 -425,-434 -1131,-434 -810,0 -1238,620 -428,621 -428,1799 0,1106 525,1764 525,658 1409,658 238,0 480,-47 242,-47 505,-140 z"
         transform="scale(0.015625)" />
      <path
         id="DejaVuSans-2d"
         d="M 313,2009 H 1997 V 1497 H 313 Z"
         transform="scale(0.015625)" />
      <path
         id="DejaVuSans-31"
         d="M 794,531 H 1825 V 4091 L 703,3866 v 575 l 1116,225 h 631 V 531 H 3481 V 0 H 794 Z"
         transform="scale(0.015625)" />
      <path
         id="DejaVuSans-32"
         d="M 1228,531 H 3431 V 0 H 469 v 531 q 359,372 979,998 621,627 780,809 303,340 423,576 121,236 121,464 0,372 -261,606 -261,235 -680,235 -297,0 -627,-103 -329,-103 -704,-313 v 638 q 381,153 712,231 332,78 607,78 725,0 1156,-363 431,-362 431,-968 0,-288 -108,-546 -107,-257 -392,-607 -78,-91 -497,-524 Q 1991,1309 1228,531 Z"
         transform="scale(0.015625)" />
      <path
         id="DejaVuSans-29"
         d="m 513,4856 h 500 q 468,-737 701,-1444 233,-706 233,-1403 0,-700 -233,-1409 -233,-709 -701,-1444 H 513 q 415,716 620,1424 205,708 205,1429 0,722 -205,1425 -205,704 -620,1422 z"
         transform="scale(0.015625)" />
    </defs>
    <defs
       id="defs97">
      <path
         id="DejaVuSans-6c"
         d="m 603,4863 h 575 V 0 H 603 Z"
         transform="scale(0.015625)" />
      <path
         id="DejaVuSans-61"
         d="m 2194,1759 q -697,0 -966,-159 -269,-159 -269,-544 0,-306 202,-486 202,-179 548,-179 479,0 768,339 289,339 289,901 v 128 z m 1147,238 V 0 H 2766 V 531 Q 2569,213 2275,61 1981,-91 1556,-91 q -537,0 -855,302 -317,302 -317,808 0,590 395,890 396,300 1180,300 h 807 v 57 q 0,397 -261,614 -261,217 -733,217 -300,0 -585,-72 -284,-72 -546,-216 v 532 q 315,122 612,182 297,61 578,61 760,0 1135,-394 375,-393 375,-1193 z"
         transform="scale(0.015625)" />
      <path
         id="DejaVuSans-63"
         d="m 3122,3366 v -538 q -244,135 -489,202 -245,67 -495,67 -560,0 -870,-355 -309,-354 -309,-995 0,-641 309,-996 310,-354 870,-354 250,0 495,67 245,67 489,202 V 134 Q 2881,22 2623,-34 2366,-91 2075,-91 1284,-91 818,406 353,903 353,1747 q 0,856 470,1346 471,491 1290,491 265,0 518,-55 253,-54 491,-163 z"
         transform="scale(0.015625)" />
    </defs>
    <defs
       id="defs114">
      <path
         id="DejaVuSans-6d"
         d="m 3328,2828 q 216,388 516,572 300,184 706,184 547,0 844,-383 297,-382 297,-1088 V 0 h -578 v 2094 q 0,503 -179,746 -178,244 -543,244 -447,0 -707,-297 -259,-296 -259,-809 V 0 h -578 v 2094 q 0,506 -178,748 -178,242 -550,242 -441,0 -701,-298 -259,-298 -259,-808 V 0 H 581 v 3500 h 578 v -544 q 197,322 472,475 275,153 653,153 382,0 649,-194 267,-193 395,-562 z"
         transform="scale(0.015625)" />
      <path
         id="DejaVuSans-4b"
         d="m 628,4666 h 631 V 2694 l 2094,1972 h 813 L 1850,2491 4331,0 H 3500 L 1259,2247 V 0 H 628 Z"
         transform="scale(0.015625)" />
    </defs>
    <defs
       id="defs135">
      <path
         id="DejaVuSans-50"
         d="M 1259,4147 V 2394 h 794 q 441,0 681,228 241,228 241,650 0,419 -241,647 -240,228 -681,228 z m -631,519 h 1425 q 785,0 1186,-355 402,-355 402,-1039 0,-691 -402,-1044 -401,-353 -1186,-353 H 1259 V 0 H 628 Z"
         transform="scale(0.015625)" />
      <path
         id="DejaVuSans-5f"
         d="m 3263,-1063 v -446 H -63 v 446 z"
         transform="scale(0.015625)" />
      <path
         id="DejaVuSans-75"
         d="m 544,1381 v 2119 h 575 V 1403 q 0,-497 193,-746 194,-248 582,-248 465,0 735,297 271,297 271,810 v 1984 h 575 V 0 H 2900 V 538 Q 2691,219 2414,64 2138,-91 1772,-91 1169,-91 856,284 544,659 544,1381 Z m 1447,2203 z"
         transform="scale(0.015625)" />
    </defs>
    <defs
       id="defs75">
      <path
         id="DejaVuSans-4d"
         d="m 628,4666 h 941 L 2759,1491 3956,4666 h 941 V 0 H 4281 V 4097 L 3078,897 H 2444 L 1241,4097 V 0 H 628 Z"
         transform="scale(0.015625)" />
      <path
         id="DejaVuSans-42"
         d="M 1259,2228 V 519 h 1013 q 509,0 754,211 246,211 246,645 0,438 -246,645 -245,208 -754,208 z m 0,1919 V 2741 h 935 q 462,0 688,173 227,174 227,530 0,353 -227,528 -226,175 -688,175 z m -631,519 h 1613 q 722,0 1112,-300 391,-300 391,-853 0,-429 -200,-682 -200,-253 -588,-315 466,-100 724,-418 258,-317 258,-792 0,-625 -425,-966 Q 3088,0 2303,0 H 628 Z"
         transform="scale(0.015625)" />
      <path
         id="DejaVuSans-69"
         d="m 603,3500 h 575 V 0 H 603 Z m 0,1363 h 575 V 4134 H 603 Z"
         transform="scale(0.015625)" />
    </defs>
    <defs
       id="defs58">
      <path
         id="DejaVuSans-72"
         d="m 2631,2963 q -97,56 -211,82 -114,27 -251,27 -488,0 -749,-317 -261,-317 -261,-911 V 0 H 581 v 3500 h 578 v -544 q 182,319 472,473 291,155 707,155 59,0 131,-8 72,-7 159,-23 z"
         transform="scale(0.015625)" />
      <path
         id="DejaVuSans-6f"
         d="m 1959,3097 q -462,0 -731,-361 -269,-361 -269,-989 0,-628 267,-989 268,-361 733,-361 460,0 728,362 269,363 269,988 0,622 -269,986 -268,364 -728,364 z m 0,487 q 750,0 1178,-488 429,-487 429,-1349 Q 3566,888 3137,398 2709,-91 1959,-91 1206,-91 779,398 353,888 353,1747 q 0,862 426,1349 427,488 1180,488 z"
         transform="scale(0.015625)" />
      <path
         id="DejaVuSans-39"
         d="m 703,97 v 575 q 238,-113 481,-172 244,-59 479,-59 625,0 954,420 330,420 377,1277 -181,-269 -460,-413 -278,-144 -615,-144 -700,0 -1108,423 -408,424 -408,1159 0,718 425,1152 425,435 1131,435 810,0 1236,-621 427,-620 427,-1801 Q 3622,1225 3098,567 2575,-91 1691,-91 1453,-91 1209,-44 966,3 703,97 Z m 1256,1978 q 425,0 673,290 249,291 249,798 0,503 -249,795 -248,292 -673,292 -425,0 -673,-292 -248,-292 -248,-795 0,-507 248,-798 248,-290 673,-290 z"
         transform="scale(0.015625)" />
      <path
         id="DejaVuSans-35"
         d="M 691,4666 H 3169 V 4134 H 1269 V 2991 q 137,47 274,70 138,23 276,23 781,0 1237,-428 457,-428 457,-1159 Q 3513,744 3044,326 2575,-91 1722,-91 1428,-91 1123,-41 819,9 494,109 v 635 q 281,-153 581,-228 300,-75 634,-75 541,0 856,284 316,284 316,772 0,487 -316,771 -315,285 -856,285 -253,0 -505,-56 -251,-56 -513,-175 z"
         transform="scale(0.015625)" />
    </defs>
  </defs>
  <ellipse
     style="fill:none;stroke:#000000;stroke-width:7.64239;stroke-dasharray:none"
     id="path174"
     ry="288.362"
     rx="288.23618"
     cy="363.18021"
     cx="441.66501" />
  <g
     id="patch_3"
     transform="matrix(2.5226392,0,0,2.5226392,-110.78482,-140.77429)">
    <path
       d="m 328.79474,228.49743 -3.59752,-11.4793 11.80479,2.02138 z"
       clip-path="url(#p932edf040d)"
       style="fill:#ffa500;stroke:#ffa500;stroke-linejoin:miter"
       id="path3" />
  </g>
  <g
     id="patch_4"
     transform="matrix(2.5226392,0,0,2.5226392,-110.78482,-140.77429)">
    <path
       d="m 337.01507,218.96312 c 2.72116,-15.95361 2.18058,-32.29451 -1.58902,-48.0334 -3.7696,-15.73889 -10.69058,-30.55162 -20.34394,-43.54143 -9.65337,-12.98981 -21.84029,-23.88916 -35.82299,-32.0382 C 265.27643,87.201049 249.78595,81.970153 233.7255,79.974081 l -1.47715,11.885169 c 14.45441,1.796464 28.39584,6.504271 40.98026,13.83841 12.58443,7.33413 23.55266,17.14355 32.24069,28.83438 8.68803,11.69083 14.91691,25.02229 18.30955,39.18729 3.39264,14.165 3.87916,28.8718 1.43011,43.23006 z"
       clip-path="url(#p932edf040d)"
       style="fill:#ffa500;stroke:#ffa500;stroke-linejoin:miter"
       id="path4" />
  </g>
  <g
     id="patch_5"
     transform="matrix(2.5226392,0,0,2.5226392,-110.78482,-140.77429)">
    <path
       d="m 231.84985,311.87039 9.34557,-7.57474 2.47127,11.71888 z"
       clip-path="url(#p932edf040d)"
       style="fill:#808080;stroke:#808080;stroke-linejoin:miter"
       id="path5" />
  </g>
  <g
     id="patch_6"
     transform="matrix(2.5226392,0,0,2.5226392,-110.78482,-140.77429)">
    <path
       d="m 243.7425,315.99852 c 3.51041,-0.74265 6.98566,-1.64267 10.41525,-2.69734 3.4296,-1.05468 6.81006,-2.26294 10.13117,-3.62114 l -4.53349,-11.08543 c -2.989,1.22238 -6.03142,2.30982 -9.11805,3.25903 -3.08663,0.9492 -6.21436,1.75922 -9.37372,2.4276 z"
       clip-path="url(#p932edf040d)"
       style="fill:#808080;stroke:#808080;stroke-linejoin:miter"
       id="path6" />
  </g>
  <g
     id="patch_7"
     transform="matrix(2.5226392,0,0,2.5226392,-110.78482,-140.77429)">
    <path
       d="m 164.22719,298.57727 -5.78291,-10.54867 -6.72331,9.91143 z"
       clip-path="url(#p932edf040d)"
       style="fill:#808080;stroke:#808080;stroke-linejoin:miter"
       id="path7" />
  </g>
  <g
     id="patch_8"
     transform="matrix(2.5226392,0,0,2.5226392,-110.78482,-140.77429)">
    <path
       d="m 102.16886,225.38029 c 3.3378,14.67945 9.4136,28.59883 17.90837,41.02726 8.49477,12.42844 19.25718,23.14453 31.72214,31.58561 l 6.71547,-9.91673 c -11.21846,-7.59698 -20.90464,-17.24146 -28.54993,-28.42705 -7.6453,-11.1856 -13.11351,-23.71303 -16.11753,-36.92454 z"
       clip-path="url(#p932edf040d)"
       style="fill:#808080;stroke:#808080;stroke-linejoin:miter"
       id="path8" />
  </g>
  <g
     id="patch_9"
     transform="matrix(2.5226392,0,0,2.5226392,-110.78482,-140.77429)">
    <path
       d="m 100.893,218.96312 c 0.0483,0.28292 0.0975,0.56566 0.14782,0.84822 0.0503,0.28256 0.10159,0.56493 0.15391,0.84712 l 11.77593,-2.18326 c -0.0471,-0.25398 -0.0933,-0.50812 -0.13852,-0.76242 -0.0453,-0.2543 -0.0896,-0.50877 -0.13303,-0.76339 z"
       clip-path="url(#p932edf040d)"
       style="fill:#008000;stroke:#008000;stroke-linejoin:miter"
       id="path9" />
  </g>
  <g
     id="patch_10"
     transform="matrix(2.5226392,0,0,2.5226392,-110.78482,-140.77429)">
    <path
       d="m 105.88187,211.47775 5.29858,-10.80006 -11.974845,0.20577 z"
       clip-path="url(#p932edf040d)"
       style="fill:#0000ff;stroke:#0000ff;stroke-linejoin:miter"
       id="path10" />
  </g>
  <g
     id="patch_11"
     transform="matrix(2.5226392,0,0,2.5226392,-110.78482,-140.77429)">
    <path
       d="m 158.20318,95.611171 c -18.28431,10.761919 -33.38474,26.191589 -43.74985,44.703729 -10.36512,18.51214 -15.627351,39.45029 -15.246061,60.66325 l 11.974681,-0.21524 c -0.34317,-19.09166 4.39284,-37.936 13.72145,-54.59693 9.3286,-16.66092 22.91898,-30.54762 39.37486,-40.23335 z"
       clip-path="url(#p932edf040d)"
       style="fill:#0000ff;stroke:#0000ff;stroke-linejoin:miter"
       id="path11" />
  </g>
  <g
     id="patch_12"
     transform="matrix(2.5226392,0,0,2.5226392,-110.78482,-140.77429)">
    <path
       d="m 168.83458,113.67373 4.77353,4.16399 -5.85109,-10.45007 z"
       clip-path="url(#p932edf040d)"
       style="fill:#00008b;stroke:#00008b;stroke-linejoin:miter"
       id="path12" />
  </g>
  <g
     id="patch_13"
     transform="matrix(2.5226392,0,0,2.5226392,-110.78482,-140.77429)">
    <path
       d="m 169.74082,106.30484 c -0.33257,0.17689 -0.66418,0.35558 -0.99482,0.53606 -0.33064,0.18047 -0.66031,0.36272 -0.98898,0.54675 l 5.85109,10.45007 c 0.29111,-0.16299 0.5831,-0.32442 0.87595,-0.48427 0.29285,-0.15984 0.58657,-0.31811 0.88113,-0.47479 z"
       clip-path="url(#p932edf040d)"
       style="fill:#00008b;stroke:#00008b;stroke-linejoin:miter"
       id="path13" />
  </g>
  <g
     id="patch_14"
     transform="matrix(2.5226392,0,0,2.5226392,-110.78482,-140.77429)">
    <path
       d="m 168.88121,90.029479 c -0.26071,0.119992 -0.52099,0.24092 -0.78083,0.362782 -0.25985,0.121863 -0.51925,0.244659 -0.77821,0.368386 l 5.16319,10.806513 c 0.23306,-0.11136 0.46652,-0.22187 0.70038,-0.33155 0.23386,-0.10967 0.46811,-0.21851 0.70276,-0.3265 z"
       clip-path="url(#p932edf040d)"
       style="fill:#008000;stroke:#008000;stroke-linejoin:miter"
       id="path14" />
  </g>
  <g
     id="text_1"
     transform="matrix(2.5226392,0,0,2.5226392,-110.78482,-140.77429)">
    <!-- $\bf{pBR322}$ -->
    <g
       transform="matrix(0.1,0,0,-0.1,197.25403,195.96593)"
       id="g19">
      <defs
         id="defs14">
        <path
           id="DejaVuSans-Bold-70"
           d="M 1656,506 V -1331 H 538 v 4831 h 1118 v -512 q 232,306 513,451 281,145 647,145 647,0 1062,-514 416,-514 416,-1323 0,-809 -416,-1324 -415,-514 -1062,-514 -366,0 -647,145 -281,146 -513,452 z m 744,2266 q -359,0 -552,-264 -192,-264 -192,-761 0,-497 192,-761 193,-264 552,-264 359,0 548,262 190,263 190,763 0,500 -190,762 -189,263 -548,263 z"
           transform="scale(0.015625)" />
        <path
           id="DejaVuSans-Bold-42"
           d="m 2456,2859 q 285,0 431,125 147,125 147,369 0,241 -147,367 -146,127 -431,127 h -665 v -988 z m 41,-2040 q 362,0 545,153 183,153 183,462 0,304 -181,455 -181,152 -547,152 H 1791 V 819 Z m 1119,1678 q 387,-113 599,-416 213,-303 213,-743 Q 4428,663 3972,331 3516,0 2584,0 H 588 v 4666 h 1806 q 972,0 1408,-294 436,-294 436,-941 0,-340 -160,-579 -159,-239 -462,-355 z"
           transform="scale(0.015625)" />
        <path
           id="DejaVuSans-Bold-52"
           d="m 2297,2597 q 378,0 542,140 164,141 164,463 0,319 -164,456 -164,138 -542,138 H 1791 V 2597 Z M 1791,1766 V 0 H 588 v 4666 h 1837 q 922,0 1351,-310 430,-309 430,-978 0,-462 -224,-759 -223,-297 -673,-438 247,-56 442,-255 196,-198 396,-601 L 4800,0 H 3519 l -569,1159 q -172,350 -349,478 -176,129 -470,129 z"
           transform="scale(0.015625)" />
        <path
           id="DejaVuSans-Bold-33"
           d="m 2981,2516 q 472,-122 717,-424 246,-301 246,-767 0,-694 -532,-1055 -531,-361 -1549,-361 -360,0 -721,58 -361,58 -714,174 v 928 q 338,-169 670,-255 333,-86 655,-86 478,0 733,165 255,166 255,476 0,319 -261,483 -261,164 -771,164 h -481 v 775 h 506 q 454,0 675,142 222,142 222,433 0,268 -216,415 -215,147 -609,147 -290,0 -587,-66 -297,-65 -591,-193 v 881 q 356,100 706,150 350,50 688,50 909,0 1360,-299 452,-298 452,-898 0,-409 -216,-670 -215,-261 -637,-367 z"
           transform="scale(0.015625)" />
        <path
           id="DejaVuSans-Bold-32"
           d="M 1844,884 H 3897 V 0 H 506 v 884 l 1703,1504 q 229,206 338,403 109,197 109,409 0,328 -220,528 -220,200 -586,200 -281,0 -616,-120 -334,-120 -715,-358 v 1025 q 406,134 803,204 397,71 778,71 838,0 1302,-369 464,-368 464,-1028 0,-381 -197,-711 -197,-329 -828,-883 z"
           transform="scale(0.015625)" />
      </defs>
      <use
         xlink:href="#DejaVuSans-Bold-70"
         transform="translate(0,0.78125)"
         id="use14" />
      <use
         xlink:href="#DejaVuSans-Bold-42"
         transform="translate(71.582031,0.78125)"
         id="use15" />
      <use
         xlink:href="#DejaVuSans-Bold-52"
         transform="translate(147.80273,0.78125)"
         id="use16" />
      <use
         xlink:href="#DejaVuSans-Bold-33"
         transform="translate(224.80469,0.78125)"
         id="use17" />
      <use
         xlink:href="#DejaVuSans-Bold-32"
         transform="translate(294.38477,0.78125)"
         id="use18" />
      <use
         xlink:href="#DejaVuSans-Bold-32"
         transform="translate(363.96484,0.78125)"
         id="use19" />
    </g>
    <!-- 4370bp -->
    <g
       transform="matrix(0.1,0,0,-0.1,199.8806,207.18405)"
       id="g25">
      <defs
         id="defs19">
        <path
           id="DejaVuSans-34"
           d="M 2419,4116 825,1625 h 1594 z m -166,550 h 794 V 1625 h 666 V 1100 H 3047 V 0 H 2419 V 1100 H 313 v 609 z"
           transform="scale(0.015625)" />
        <path
           id="DejaVuSans-33"
           d="m 2597,2516 q 453,-97 707,-404 255,-306 255,-756 0,-690 -475,-1069 -475,-378 -1350,-378 -293,0 -604,58 -311,58 -642,174 v 609 q 262,-153 574,-231 313,-78 654,-78 593,0 904,234 311,234 311,681 0,413 -289,645 -289,233 -804,233 h -544 v 519 h 569 q 465,0 712,186 247,186 247,536 0,359 -255,551 -254,193 -729,193 -260,0 -557,-57 -297,-56 -653,-174 v 562 q 360,100 674,150 314,50 592,50 719,0 1137,-327 419,-326 419,-882 0,-388 -222,-655 -222,-267 -631,-370 z"
           transform="scale(0.015625)" />
        <path
           id="DejaVuSans-37"
           d="M 525,4666 H 3525 V 4397 L 1831,0 H 1172 L 2766,4134 H 525 Z"
           transform="scale(0.015625)" />
        <path
           id="DejaVuSans-30"
           d="m 2034,4250 q -487,0 -733,-480 -245,-479 -245,-1442 0,-959 245,-1439 246,-480 733,-480 491,0 736,480 246,480 246,1439 0,963 -246,1442 -245,480 -736,480 z m 0,500 q 785,0 1199,-621 414,-620 414,-1801 0,-1178 -414,-1799 -414,-620 -1199,-620 -784,0 -1198,620 -414,621 -414,1799 0,1181 414,1801 414,621 1198,621 z"
           transform="scale(0.015625)" />
        <path
           id="DejaVuSans-62"
           d="m 3116,1747 q 0,634 -261,995 -261,361 -717,361 -457,0 -718,-361 -261,-361 -261,-995 0,-634 261,-995 261,-361 718,-361 456,0 717,361 261,361 261,995 z M 1159,2969 q 182,312 458,463 277,152 661,152 638,0 1036,-506 399,-506 399,-1331 Q 3713,922 3314,415 2916,-91 2278,-91 1894,-91 1617,61 1341,213 1159,525 V 0 H 581 v 4863 h 578 z"
           transform="scale(0.015625)" />
        <path
           id="DejaVuSans-70"
           d="M 1159,525 V -1331 H 581 v 4831 h 578 v -531 q 182,312 458,463 277,152 661,152 638,0 1036,-506 399,-506 399,-1331 0,-825 -399,-1332 -398,-506 -1036,-506 -384,0 -661,152 -276,152 -458,464 z m 1957,1222 q 0,634 -261,995 -261,361 -717,361 -457,0 -718,-361 -261,-361 -261,-995 0,-634 261,-995 261,-361 718,-361 456,0 717,361 261,361 261,995 z"
           transform="scale(0.015625)" />
      </defs>
      <use
         xlink:href="#DejaVuSans-34"
         id="use20" />
      <use
         xlink:href="#DejaVuSans-33"
         x="63.623047"
         id="use21" />
      <use
         xlink:href="#DejaVuSans-37"
         x="127.24609"
         id="use22" />
      <use
         xlink:href="#DejaVuSans-30"
         x="190.86914"
         id="use23" />
      <use
         xlink:href="#DejaVuSans-62"
         x="254.49219"
         id="use24" />
      <use
         xlink:href="#DejaVuSans-70"
         x="317.96875"
         id="use25" />
    </g>
  </g>
  <g
     id="line2d_1"
     transform="matrix(2.5226392,0,0,2.5226392,-110.78482,-140.77429)">
    <path
       d="M 318.36217,132.028 338.2438,118.66845"
       clip-path="url(#p932edf040d)"
       style="fill:none;stroke:#ffa500;stroke-width:1.5;stroke-linecap:square;stroke-opacity:0.3"
       id="path42" />
  </g>
  <g
     id="g178"
     transform="matrix(4.0435452,0,0,4.0435452,-625.50796,-316.43372)">
    <use
       xlink:href="#DejaVuSans-74"
       id="use43"
       transform="matrix(0.07,0,0,-0.07,338.2438,120.60001)"
       style="fill:#ffa500" />
    <use
       xlink:href="#DejaVuSans-65"
       x="39.208984"
       id="use44"
       transform="matrix(0.07,0,0,-0.07,338.2438,120.60001)"
       style="fill:#ffa500" />
    <use
       xlink:href="#DejaVuSans-74"
       x="100.73242"
       id="use45"
       transform="matrix(0.07,0,0,-0.07,338.2438,120.60001)"
       style="fill:#ffa500" />
    <use
       xlink:href="#DejaVuSans-41"
       x="139.94141"
       id="use46"
       transform="matrix(0.07,0,0,-0.07,338.2438,120.60001)"
       style="fill:#ffa500" />
  </g>
  <use
     xlink:href="#DejaVuSans-20"
     x="208.34961"
     id="use47"
     transform="matrix(0.07,0,0,-0.07,285.40833,55.281794)"
     style="fill:#ffa500" />
  <use
     xlink:href="#DejaVuSans-20"
     x="406.39648"
     id="use51"
     transform="matrix(0.07,0,0,-0.07,285.40833,55.281794)"
     style="fill:#ffa500" />
  <use
     xlink:href="#DejaVuSans-20"
     x="474.26758"
     id="use53"
     transform="matrix(0.07,0,0,-0.07,285.40833,55.281794)"
     style="fill:#ffa500" />
  <g
     id="line2d_2"
     transform="matrix(2.5226392,0,0,2.5226392,-110.78482,-140.77429)">
    <path
       d="m 248.77201,314.82064 5.9636,23.19897"
       clip-path="url(#p932edf040d)"
       style="fill:none;stroke:#808080;stroke-width:1.5;stroke-linecap:square;stroke-opacity:0.3"
       id="path58" />
  </g>
  <g
     id="g181"
     transform="matrix(5.2922195,0,0,5.2922195,-818.05553,-1086.3283)">
    <use
       xlink:href="#DejaVuSans-72"
       id="use59"
       transform="matrix(0.07,0,0,-0.07,254.73561,339.95117)"
       style="fill:#808080" />
    <use
       xlink:href="#DejaVuSans-6f"
       x="38.863281"
       id="use60"
       transform="matrix(0.07,0,0,-0.07,254.73561,339.95117)"
       style="fill:#808080" />
    <use
       xlink:href="#DejaVuSans-70"
       x="100.04492"
       id="use61"
       transform="matrix(0.07,0,0,-0.07,254.73561,339.95117)"
       style="fill:#808080" />
  </g>
  <use
     xlink:href="#DejaVuSans-20"
     x="163.52148"
     id="use62"
     transform="matrix(0.07,0,0,-0.07,201.90014,274.63295)"
     style="fill:#808080" />
  <use
     xlink:href="#DejaVuSans-20"
     x="488.81445"
     id="use68"
     transform="matrix(0.07,0,0,-0.07,201.90014,274.63295)"
     style="fill:#808080" />
  <use
     xlink:href="#DejaVuSans-20"
     x="556.68555"
     id="use70"
     transform="matrix(0.07,0,0,-0.07,201.90014,274.63295)"
     style="fill:#808080" />
  <g
     id="line2d_3"
     transform="matrix(2.5226392,0,0,2.5226392,-110.78482,-140.77429)">
    <path
       d="M 123.342,270.95247 104.2196,285.3778"
       clip-path="url(#p932edf040d)"
       style="fill:none;stroke:#808080;stroke-width:1.5;stroke-linecap:square;stroke-opacity:0.3"
       id="path75" />
  </g>
  <use
     xlink:href="#DejaVuSans-20"
     x="281.98242"
     id="use80"
     transform="matrix(0.07,0,0,-0.07,-29.977746,221.99115)"
     style="fill:#808080" />
  <g
     id="g180"
     transform="matrix(3.6750464,0,0,3.6750464,-51.425566,-472.76533)">
    <use
       xlink:href="#DejaVuSans-70"
       id="use76"
       transform="matrix(0.07,0,0,-0.07,22.857723,287.30937)"
       style="fill:#808080" />
    <use
       xlink:href="#DejaVuSans-4d"
       x="63.476562"
       id="use77"
       transform="matrix(0.07,0,0,-0.07,22.857723,287.30937)"
       style="fill:#808080" />
    <use
       xlink:href="#DejaVuSans-42"
       x="149.75586"
       id="use78"
       transform="matrix(0.07,0,0,-0.07,22.857723,287.30937)"
       style="fill:#808080" />
    <use
       xlink:href="#DejaVuSans-31"
       x="218.35938"
       id="use79"
       transform="matrix(0.07,0,0,-0.07,22.857723,287.30937)"
       style="fill:#808080" />
    <use
       xlink:href="#DejaVuSans-6f"
       x="313.76953"
       id="use81"
       transform="matrix(0.07,0,0,-0.07,22.857723,287.30937)"
       style="fill:#808080" />
    <use
       xlink:href="#DejaVuSans-72"
       x="374.95117"
       id="use82"
       transform="matrix(0.07,0,0,-0.07,22.857723,287.30937)"
       style="fill:#808080" />
    <use
       xlink:href="#DejaVuSans-69"
       x="416.06445"
       id="use83"
       transform="matrix(0.07,0,0,-0.07,22.857723,287.30937)"
       style="fill:#808080" />
  </g>
  <use
     xlink:href="#DejaVuSans-20"
     x="443.84766"
     id="use84"
     transform="matrix(0.07,0,0,-0.07,-29.977746,221.99115)"
     style="fill:#808080" />
  <use
     xlink:href="#DejaVuSans-20"
     x="769.14062"
     id="use90"
     transform="matrix(0.07,0,0,-0.07,-29.977746,221.99115)"
     style="fill:#808080" />
  <use
     xlink:href="#DejaVuSans-20"
     x="837.01172"
     id="use92"
     transform="matrix(0.07,0,0,-0.07,-29.977746,221.99115)"
     style="fill:#808080" />
  <g
     id="line2d_4"
     transform="matrix(2.5226392,0,0,2.5226392,-110.78482,-140.77429)">
    <path
       d="m 101.04082,219.81134 -23.582645,4.19711"
       clip-path="url(#p932edf040d)"
       style="fill:none;stroke:#008000;stroke-width:1.5;stroke-linecap:square;stroke-opacity:0.3"
       id="path97" />
  </g>
  <g
     id="g176"
     transform="matrix(4.3564082,0,0,4.3564082,-38.71889,-545.34242)">
    <use
       xlink:href="#DejaVuSans-6c"
       id="use98"
       transform="matrix(0.07,0,0,-0.07,17.083175,225.94001)"
       style="fill:#008000" />
    <use
       xlink:href="#DejaVuSans-61"
       x="27.783203"
       id="use99"
       transform="matrix(0.07,0,0,-0.07,17.083175,225.94001)"
       style="fill:#008000" />
    <use
       xlink:href="#DejaVuSans-63"
       x="89.0625"
       id="use100"
       transform="matrix(0.07,0,0,-0.07,17.083175,225.94001)"
       style="fill:#008000" />
  </g>
  <use
     xlink:href="#DejaVuSans-20"
     x="144.04297"
     id="use101"
     transform="matrix(0.07,0,0,-0.07,-35.752294,160.62179)"
     style="fill:#008000" />
  <use
     xlink:href="#DejaVuSans-20"
     x="469.33594"
     id="use107"
     transform="matrix(0.07,0,0,-0.07,-35.752294,160.62179)"
     style="fill:#008000" />
  <use
     xlink:href="#DejaVuSans-20"
     x="537.20703"
     id="use109"
     transform="matrix(0.07,0,0,-0.07,-35.752294,160.62179)"
     style="fill:#008000" />
  <g
     id="line2d_5"
     transform="matrix(2.5226392,0,0,2.5226392,-110.78482,-140.77429)">
    <path
       d="M 111.83427,145.26015 90.410313,134.54703"
       clip-path="url(#p932edf040d)"
       style="fill:none;stroke:#0000ff;stroke-width:1.5;stroke-linecap:square;stroke-opacity:0.3"
       id="path114" />
  </g>
  <g
     id="g177"
     transform="matrix(3.4575141,0,0,3.4575141,-23.674627,-265.19051)">
    <use
       xlink:href="#DejaVuSans-6d"
       id="use115"
       transform="matrix(0.07,0,0,-0.07,7.2,136.47859)"
       style="fill:#0000ff" />
    <use
       xlink:href="#DejaVuSans-4b"
       x="97.412109"
       id="use116"
       transform="matrix(0.07,0,0,-0.07,7.2,136.47859)"
       style="fill:#0000ff" />
    <use
       xlink:href="#DejaVuSans-61"
       x="161.23828"
       id="use117"
       transform="matrix(0.07,0,0,-0.07,7.2,136.47859)"
       style="fill:#0000ff" />
    <use
       xlink:href="#DejaVuSans-6c"
       x="222.51758"
       id="use118"
       transform="matrix(0.07,0,0,-0.07,7.2,136.47859)"
       style="fill:#0000ff" />
    <use
       xlink:href="#DejaVuSans-61"
       x="250.30078"
       id="use119"
       transform="matrix(0.07,0,0,-0.07,7.2,136.47859)"
       style="fill:#0000ff" />
    <use
       xlink:href="#DejaVuSans-6d"
       x="311.58008"
       id="use120"
       transform="matrix(0.07,0,0,-0.07,7.2,136.47859)"
       style="fill:#0000ff" />
    <use
       xlink:href="#DejaVuSans-61"
       x="408.99219"
       id="use121"
       transform="matrix(0.07,0,0,-0.07,7.2,136.47859)"
       style="fill:#0000ff" />
  </g>
  <use
     xlink:href="#DejaVuSans-20"
     x="470.27148"
     id="use122"
     transform="matrix(0.07,0,0,-0.07,-45.635469,71.160374)"
     style="fill:#0000ff" />
  <use
     xlink:href="#DejaVuSans-20"
     x="795.56445"
     id="use128"
     transform="matrix(0.07,0,0,-0.07,-45.635469,71.160374)"
     style="fill:#0000ff" />
  <use
     xlink:href="#DejaVuSans-20"
     x="863.43555"
     id="use130"
     transform="matrix(0.07,0,0,-0.07,-45.635469,71.160374)"
     style="fill:#0000ff" />
  <g
     id="line2d_6"
     transform="matrix(2.5226392,0,0,2.5226392,-110.78482,-140.77429)">
    <path
       d="M 167.75702,107.38765 150.20376,76.037439"
       clip-path="url(#p932edf040d)"
       style="fill:none;stroke:#00008b;stroke-width:1.5;stroke-linecap:square;stroke-opacity:0.3"
       id="path135" />
  </g>
  <g
     id="g179"
     transform="matrix(3.4402161,0,0,3.4402161,-84.73255,-207.34702)">
    <use
       xlink:href="#DejaVuSans-50"
       id="use136"
       transform="matrix(0.07,0,0,-0.07,68.141883,77.871657)"
       style="fill:#00008b" />
    <use
       xlink:href="#DejaVuSans-5f"
       x="60.302734"
       id="use137"
       transform="matrix(0.07,0,0,-0.07,68.141883,77.871657)"
       style="fill:#00008b" />
    <use
       xlink:href="#DejaVuSans-6c"
       x="110.30273"
       id="use138"
       transform="matrix(0.07,0,0,-0.07,68.141883,77.871657)"
       style="fill:#00008b" />
    <use
       xlink:href="#DejaVuSans-65"
       x="138.08594"
       id="use139"
       transform="matrix(0.07,0,0,-0.07,68.141883,77.871657)"
       style="fill:#00008b" />
    <use
       xlink:href="#DejaVuSans-75"
       x="199.60938"
       id="use140"
       transform="matrix(0.07,0,0,-0.07,68.141883,77.871657)"
       style="fill:#00008b" />
    <use
       xlink:href="#DejaVuSans-35"
       x="262.98828"
       id="use141"
       transform="matrix(0.07,0,0,-0.07,68.141883,77.871657)"
       style="fill:#00008b" />
    <use
       xlink:href="#DejaVuSans-30"
       x="326.61133"
       id="use142"
       transform="matrix(0.07,0,0,-0.07,68.141883,77.871657)"
       style="fill:#00008b" />
    <use
       xlink:href="#DejaVuSans-30"
       x="390.23438"
       id="use143"
       transform="matrix(0.07,0,0,-0.07,68.141883,77.871657)"
       style="fill:#00008b" />
  </g>
  <use
     xlink:href="#DejaVuSans-20"
     x="453.85742"
     id="use144"
     transform="matrix(0.07,0,0,-0.07,15.306414,12.553441)"
     style="fill:#00008b" />
  <use
     xlink:href="#DejaVuSans-20"
     x="779.15039"
     id="use150"
     transform="matrix(0.07,0,0,-0.07,15.306414,12.553441)"
     style="fill:#00008b" />
  <use
     xlink:href="#DejaVuSans-20"
     x="847.02148"
     id="use152"
     transform="matrix(0.07,0,0,-0.07,15.306414,12.553441)"
     style="fill:#00008b" />
  <g
     id="line2d_7"
     transform="matrix(2.5226392,0,0,2.5226392,-110.78482,-140.77429)">
    <path
       d="M 168.10038,90.392261 157.92965,68.705559"
       clip-path="url(#p932edf040d)"
       style="fill:none;stroke:#008000;stroke-width:1.5;stroke-linecap:square;stroke-opacity:0.3"
       id="path157" />
  </g>
  <g
     id="g175"
     transform="matrix(4.2684029,0,0,4.2684029,-176.85049,-264.26377)">
    <use
       xlink:href="#DejaVuSans-6c"
       id="use158"
       transform="matrix(0.07,0,0,-0.07,97.554647,70.637122)"
       style="fill:#008000" />
    <use
       xlink:href="#DejaVuSans-61"
       x="27.783203"
       id="use159"
       transform="matrix(0.07,0,0,-0.07,97.554647,70.637122)"
       style="fill:#008000" />
    <use
       xlink:href="#DejaVuSans-63"
       x="89.0625"
       id="use160"
       transform="matrix(0.07,0,0,-0.07,97.554647,70.637122)"
       style="fill:#008000" />
  </g>
  <use
     xlink:href="#DejaVuSans-20"
     x="144.04297"
     id="use161"
     transform="matrix(0.07,0,0,-0.07,44.719178,5.3189063)"
     style="fill:#008000" />
  <use
     xlink:href="#DejaVuSans-20"
     x="469.33594"
     id="use167"
     transform="matrix(0.07,0,0,-0.07,44.719178,5.3189063)"
     style="fill:#008000" />
  <use
     xlink:href="#DejaVuSans-20"
     x="537.20703"
     id="use169"
     transform="matrix(0.07,0,0,-0.07,44.719178,5.3189063)"
     style="fill:#008000" />
  <defs
     id="defs174">
    <clipPath
       id="p932edf040d">
      <rect
         x="27.328262"
         y="7.1999998"
         width="383.25156"
         height="383.25156"
         id="rect174" />
    </clipPath>
  </defs>
</svg>
